<svg id="Filled" height="512" viewBox="0 0 512 512" width="512" xmlns="http://www.w3.org/2000/svg"><path d="m240 232h32v192h-32z" fill="#596063"/><path d="m240 232v-56l-64-136h160l-64 136v56z" fill="#f06e0a"/><path d="m240 40h32v48h-32z" fill="#e9eef2"/><path d="m285.28 472h-58.56a31.738 31.738 0 0 0 3.34-8.24l9.94-39.76h32l9.94 39.76a31.738 31.738 0 0 0 3.34 8.24z" fill="#f06e0a"/><path d="m240 176v248l-9.94 39.76a32.039 32.039 0 0 1 -31.04 24.24h-105.77a32 32 0 0 1 -22.62-9.37l-22.63-38.63v-184l48-40v-176l80-16z" fill="#ff750a"/><path d="m48 360h192v48h-192z" fill="#e9eef2"/><path d="m48 264h192v48h-192z" fill="#e9eef2"/><path d="m176 264h-48v-232l48-8z" fill="#dadcde"/><path d="m464 256v184l-22.63 38.63a32 32 0 0 1 -22.62 9.37h-105.77a32.039 32.039 0 0 1 -31.04-24.24l-9.94-39.76v-248l64-152 80 16v176z" fill="#ff750a"/><path d="m272 360h192v48h-192z" fill="#e9eef2" transform="matrix(-1 0 0 -1 736 768)"/><path d="m272 264h192v48h-192z" fill="#e9eef2" transform="matrix(-1 0 0 -1 736 576)"/><path d="m336 264h48v-232l-48-8z" fill="#dadcde"/><path d="m469.121 249.854-45.121-37.601v-172.253a8 8 0 0 0 -6.431-7.845l-80-16a8 8 0 0 0 -8.942 4.741l-4.676 11.104h-135.9l-4.676-11.1a8 8 0 0 0 -8.942-4.741l-80 16a8 8 0 0 0 -6.433 7.841v172.253l-45.121 37.6a8 8 0 0 0 -2.879 6.147v184a8 8 0 0 0 1.1 4.043l22.627 38.628a8 8 0 0 0 1.247 1.614 39.742 39.742 0 0 0 28.281 11.715h105.761a39.933 39.933 0 0 0 32.006-16h49.957a39.931 39.931 0 0 0 32 16h105.766a39.742 39.742 0 0 0 28.284-11.715 8 8 0 0 0 1.247-1.614l22.624-38.628a8 8 0 0 0 1.1-4.043v-184a8 8 0 0 0 -2.879-6.146zm-58.242-27.708 40.621 33.854h-59.5v-212.641l16 3.2v169.441a8 8 0 0 0 2.879 6.146zm-178.879 49.854v32h-176v-32zm16-32h16v176h-16zm96 16v-222.242l32 6.4v215.842zm-16 0h-48v-78.384l48-114zm-96 0h-48v-192.384l48 114zm-64 0h-32v-215.841l32-6.4zm64 64v32h-176v-32zm0 48v32h-176v-32zm14.246 64h19.508l8 32h-35.508zm33.754-64h176v32h-176zm0-16v-32h176v32zm0-48v-32h176v32zm-32-256h16v32h-16zm-16 0v40a8 8 0 0 0 8 8h32a8 8 0 0 0 8-8v-40h37.215l-52.588 124.9a7.992 7.992 0 0 0 -.627 3.1v48h-16v-48a7.992 7.992 0 0 0 -.627-3.1l-52.588-124.9zm-130.879 174.146a8 8 0 0 0 2.879-6.146v-169.441l16-3.2v212.641h-59.5zm97.895 257.854h-105.761a23.828 23.828 0 0 1 -16.282-6.367l-20.973-35.804v-21.829h176v7.015l-9.7 38.806a23.967 23.967 0 0 1 -23.284 18.179zm236.011-6.367a23.828 23.828 0 0 1 -16.282 6.367h-105.761a23.967 23.967 0 0 1 -23.284-18.179l-9.7-38.806v-7.015h176v21.829z"/></svg>